<svg width="36" height="35" viewBox="0 0 36 35" fill="none" xmlns="http://www.w3.org/2000/svg">
<g id="mdi:pinterest" clip-path="url(#clip0_40_58)">
<path id="Vector" d="M12.945 34.195C14.625 34.7025 16.3225 35 18.125 35C22.7663 35 27.2175 33.1563 30.4994 29.8744C33.7813 26.5925 35.625 22.1413 35.625 17.5C35.625 15.2019 35.1724 12.9262 34.2929 10.803C33.4134 8.67984 32.1244 6.75066 30.4994 5.12563C28.8743 3.50061 26.9452 2.21157 24.822 1.33211C22.6988 0.452651 20.4231 0 18.125 0C15.8269 0 13.5512 0.452651 11.428 1.33211C9.30484 2.21157 7.37566 3.50061 5.75063 5.12563C2.46874 8.40752 0.625 12.8587 0.625 17.5C0.625 24.9375 5.2975 31.325 11.895 33.845C11.7375 32.48 11.58 30.2225 11.895 28.665L13.9075 20.02C13.9075 20.02 13.4 19.005 13.4 17.395C13.4 14.98 14.905 13.1775 16.62 13.1775C18.125 13.1775 18.825 14.28 18.825 15.6975C18.825 17.2025 17.8275 19.355 17.32 21.42C17.0225 23.135 18.23 24.64 19.98 24.64C23.095 24.64 25.51 21.315 25.51 16.625C25.51 12.425 22.5 9.555 18.1775 9.555C13.2425 9.555 10.3375 13.23 10.3375 17.0975C10.3375 18.6025 10.8275 20.125 11.6325 21.1225C11.79 21.2275 11.79 21.3675 11.7375 21.63L11.23 23.5375C11.23 23.835 11.0375 23.94 10.74 23.73C8.5 22.75 7.205 19.565 7.205 16.9925C7.205 11.4625 11.125 6.44 18.685 6.44C24.705 6.44 29.395 10.7625 29.395 16.5025C29.395 22.5225 25.6675 27.3525 20.33 27.3525C18.6325 27.3525 16.97 26.4425 16.375 25.375L15.2025 29.5225C14.8 31.0275 13.6975 33.04 12.945 34.2475V34.195Z" fill="black"/>
</g>
<defs>
<clipPath id="clip0_40_58">
<rect width="35" height="35" fill="white" transform="translate(0.625)"/>
</clipPath>
</defs>
</svg>
