<svg width="65" height="55" viewBox="0 0 65 55" fill="none" xmlns="http://www.w3.org/2000/svg">
<g id="mdi:printer">
<path id="Vector" d="M48.7684 6.875H16.4304V16.0417H48.7684M51.4632 27.5C50.7485 27.5 50.0631 27.2586 49.5577 26.8288C49.0523 26.399 48.7684 25.8161 48.7684 25.2083C48.7684 24.6005 49.0523 24.0177 49.5577 23.5879C50.0631 23.1581 50.7485 22.9167 51.4632 22.9167C52.178 22.9167 52.8634 23.1581 53.3688 23.5879C53.8742 24.0177 54.1581 24.6005 54.1581 25.2083C54.1581 25.8161 53.8742 26.399 53.3688 26.8288C52.8634 27.2586 52.178 27.5 51.4632 27.5ZM43.3788 43.5417H21.8201V32.0833H43.3788M51.4632 18.3333H13.7356C11.5915 18.3333 9.53515 19.0577 8.01902 20.347C6.50288 21.6363 5.65112 23.385 5.65112 25.2083V38.9583H16.4304V48.125H48.7684V38.9583H59.5477V25.2083C59.5477 23.385 58.696 21.6363 57.1798 20.347C55.6637 19.0577 53.6074 18.3333 51.4632 18.3333Z" fill="black"/>
</g>
</svg>
