<svg width="18" height="18" viewBox="0 0 18 18" fill="none" xmlns="http://www.w3.org/2000/svg">
<g id="bi:reddit" clip-path="url(#clip0_55_151)">
<g id="Group">
<path id="Vector" d="M6.93787 9C6.69032 9.0003 6.45299 9.09877 6.27794 9.27382C6.10289 9.44887 6.00442 9.6862 6.00412 9.93375C6.00412 10.4501 6.42262 10.8788 6.93787 10.8686C7.18005 10.8602 7.40951 10.7581 7.57787 10.5838C7.74622 10.4095 7.84032 10.1766 7.84032 9.93431C7.84032 9.69198 7.74622 9.45912 7.57787 9.28482C7.40951 9.11052 7.18005 9.00841 6.93787 9ZM9.01124 13.1029C9.36562 13.1029 10.5896 13.0601 11.2342 12.4155C11.276 12.3679 11.299 12.3067 11.299 12.2434C11.299 12.18 11.276 12.1189 11.2342 12.0712C11.2119 12.0482 11.1852 12.0298 11.1556 12.0173C11.126 12.0048 11.0942 11.9983 11.0621 11.9983C11.03 11.9983 10.9982 12.0048 10.9687 12.0173C10.9391 12.0298 10.9123 12.0482 10.89 12.0712C10.4929 12.4796 9.62324 12.6191 9.01124 12.6191C8.39812 12.6191 7.53975 12.4796 7.13137 12.0712C7.10903 12.0482 7.08228 12.0298 7.05271 12.0173C7.02314 12.0048 6.99136 11.9983 6.95924 11.9983C6.92713 11.9983 6.89535 12.0048 6.86578 12.0173C6.83621 12.0298 6.80946 12.0482 6.78712 12.0712C6.76405 12.0936 6.74571 12.1203 6.73319 12.1499C6.72066 12.1795 6.71421 12.2113 6.71421 12.2434C6.71421 12.2755 6.72066 12.3073 6.73319 12.3368C6.74571 12.3664 6.76405 12.3932 6.78712 12.4155C7.42162 13.0489 8.64562 13.1018 9.01124 13.1018V13.1029ZM10.1272 9.945C10.1272 10.4603 10.5469 10.8788 11.0621 10.8788C11.5774 10.8788 11.9959 10.4501 11.9959 9.945C11.9841 9.70528 11.8806 9.47927 11.7068 9.31378C11.5329 9.14828 11.3021 9.05597 11.0621 9.05597C10.8221 9.05597 10.5913 9.14828 10.4175 9.31378C10.2437 9.47927 10.1401 9.70528 10.1284 9.945H10.1272Z" fill="#F5F5F5"/>
<path id="Vector_2" d="M18 9C18 11.3869 17.0518 13.6761 15.364 15.364C13.6761 17.0518 11.3869 18 9 18C6.61305 18 4.32387 17.0518 2.63604 15.364C0.948212 13.6761 0 11.3869 0 9C0 6.61305 0.948212 4.32387 2.63604 2.63604C4.32387 0.948212 6.61305 0 9 0C11.3869 0 13.6761 0.948212 15.364 2.63604C17.0518 4.32387 18 6.61305 18 9ZM13.6935 7.68938C13.3391 7.68938 13.0162 7.82887 12.78 8.055C11.8789 7.41037 10.6425 6.99187 9.26888 6.93787L9.86962 4.12425L11.8249 4.54275C11.8335 4.72531 11.8954 4.90134 12.0031 5.04902C12.1108 5.19669 12.2595 5.30952 12.4307 5.37352C12.6018 5.43751 12.7881 5.44986 12.9662 5.40902C13.1444 5.36819 13.3066 5.27598 13.4328 5.14381C13.5591 5.01164 13.6437 4.84534 13.6764 4.6655C13.709 4.48567 13.6881 4.30022 13.6163 4.13214C13.5445 3.96406 13.425 3.82074 13.2725 3.71995C13.1201 3.61916 12.9414 3.56533 12.7586 3.56512C12.5838 3.56574 12.4127 3.61541 12.2647 3.70849C12.1167 3.80157 11.9979 3.93431 11.9216 4.09163L9.74138 3.63037C9.71202 3.62405 9.68171 3.62358 9.65218 3.62899C9.62264 3.63439 9.59446 3.64557 9.56925 3.66188C9.54297 3.67827 9.52066 3.7003 9.50393 3.72637C9.4872 3.75244 9.47646 3.7819 9.4725 3.81262L8.8065 6.94913C7.4115 6.99188 6.15375 7.41038 5.24025 8.06513C5.004 7.84013 4.68225 7.70062 4.329 7.70062C4.02942 7.70018 3.73876 7.80256 3.50559 7.99066C3.27241 8.17876 3.11086 8.44118 3.0479 8.73407C2.98495 9.02696 3.02442 9.33259 3.15972 9.59988C3.29502 9.86717 3.51794 10.0799 3.79125 10.2026C3.76875 10.332 3.75863 10.4614 3.75863 10.5997C3.75863 12.6191 6.111 14.2628 9.01125 14.2628C11.9104 14.2628 14.2628 12.6304 14.2628 10.5997C14.2628 10.4715 14.2515 10.332 14.2301 10.2026C14.6813 9.999 15.0041 9.53662 15.0041 9C15.0041 8.26875 14.4135 7.68938 13.6935 7.68938Z" fill="#F5F5F5"/>
</g>
</g>
<defs>
<clipPath id="clip0_55_151">
<rect width="18" height="18" fill="white"/>
</clipPath>
</defs>
</svg>
