<svg width="36" height="35" viewBox="0 0 36 35" fill="none" xmlns="http://www.w3.org/2000/svg">
<g id="formkit:twitter" clip-path="url(#clip0_40_50)">
<path id="Vector" d="M18.375 0C28.05 0 35.875 7.825 35.875 17.5C35.875 27.175 28.05 35 18.375 35C8.7 35 0.875 27.175 0.875 17.5C0.875 7.825 8.7 0 18.375 0ZM15.175 26.725C22.925 26.725 27.175 20.3 27.175 14.725V14.175C28 13.575 28.725 12.825 29.275 11.975C28.525 12.3 27.7 12.525 26.85 12.65C27.725 12.125 28.4 11.3 28.7 10.325C27.875 10.8 26.975 11.15 26.025 11.35C25.25 10.525 24.15 10.025 22.95 10.025C20.625 10.025 18.725 11.925 18.725 14.25C18.725 14.575 18.75 14.9 18.85 15.2C15.35 15.025 12.225 13.35 10.15 10.8C9.8 11.425 9.575 12.15 9.575 12.925C9.575 14.375 10.325 15.675 11.45 16.425C10.75 16.425 10.1 16.225 9.55 15.9V15.95C9.55 18 11 19.7 12.925 20.1C12.575 20.2 12.2 20.25 11.825 20.25C11.55 20.25 11.3 20.225 11.025 20.175C11.55 21.85 13.125 23.075 14.95 23.1C13.5 24.225 11.675 24.9 9.7 24.9C9.35 24.9 9.025 24.9 8.7 24.85C10.55 26.05 12.775 26.75 15.15 26.75" fill="black"/>
</g>
<defs>
<clipPath id="clip0_40_50">
<rect width="35" height="35" fill="white" transform="translate(0.875)"/>
</clipPath>
</defs>
</svg>
