<svg width="18" height="18" viewBox="0 0 18 18" fill="none" xmlns="http://www.w3.org/2000/svg">
<g id="entypo-social:youtube-with-circle" clip-path="url(#clip0_55_161)">
<path id="Vector" d="M10.8628 9.20354L8.75719 8.22104C8.57344 8.13573 8.4225 8.23136 8.4225 8.43479V10.2854C8.4225 10.4889 8.57344 10.5845 8.75719 10.4992L10.8619 9.51667C11.0466 9.43042 11.0466 9.28979 10.8628 9.20354ZM9.36 0.360107C4.38938 0.360107 0.360001 4.38948 0.360001 9.36011C0.360001 14.3307 4.38938 18.3601 9.36 18.3601C14.3306 18.3601 18.36 14.3307 18.36 9.36011C18.36 4.38948 14.3306 0.360107 9.36 0.360107ZM9.36 13.0164C4.75313 13.0164 4.6725 12.601 4.6725 9.36011C4.6725 6.11917 4.75313 5.70386 9.36 5.70386C13.9669 5.70386 14.0475 6.11917 14.0475 9.36011C14.0475 12.601 13.9669 13.0164 9.36 13.0164Z" fill="white"/>
</g>
<defs>
<clipPath id="clip0_55_161">
<rect width="18" height="18" fill="white"/>
</clipPath>
</defs>
</svg>
