<svg width="18" height="18" viewBox="0 0 18 18" fill="none" xmlns="http://www.w3.org/2000/svg">
<g id="entypo-social:instagram-with-circle" clip-path="url(#clip0_55_159)">
<path id="Vector" d="M12.1725 9.36011C12.1725 10.106 11.8762 10.8214 11.3487 11.3488C10.8213 11.8763 10.1059 12.1726 9.36 12.1726C8.61408 12.1726 7.89871 11.8763 7.37126 11.3488C6.84382 10.8214 6.5475 10.106 6.5475 9.36011C6.5475 9.19979 6.56437 9.04323 6.59344 8.89136H5.61V12.6385C5.61 12.8992 5.82094 13.1101 6.08156 13.1101H12.6394C12.7643 13.1099 12.884 13.0601 12.9722 12.9717C13.0604 12.8833 13.11 12.7634 13.11 12.6385V8.89136H12.1266C12.1556 9.04323 12.1725 9.19979 12.1725 9.36011ZM9.36 11.2351C9.60629 11.235 9.85016 11.1865 10.0777 11.0922C10.3052 10.9979 10.5119 10.8597 10.686 10.6855C10.8601 10.5113 10.9982 10.3045 11.0924 10.0769C11.1866 9.84935 11.2351 9.60546 11.235 9.35917C11.2349 9.11288 11.1864 8.86901 11.0921 8.64149C10.9978 8.41398 10.8596 8.20726 10.6854 8.03315C10.5112 7.85904 10.3044 7.72095 10.0768 7.62675C9.84924 7.53256 9.60535 7.48411 9.35906 7.48417C8.86166 7.48429 8.38467 7.68201 8.03304 8.03381C7.68141 8.38562 7.48394 8.8627 7.48406 9.36011C7.48419 9.85751 7.6819 10.3345 8.03371 10.6861C8.38551 11.0378 8.8626 11.2352 9.36 11.2351ZM11.61 7.39136H12.7341C12.8087 7.39136 12.8804 7.36176 12.9333 7.30904C12.9862 7.25632 13.016 7.18479 13.0162 7.11011V5.98604C13.0162 5.9112 12.9865 5.83943 12.9336 5.78651C12.8807 5.73359 12.8089 5.70386 12.7341 5.70386H11.61C11.5352 5.70386 11.4634 5.73359 11.4105 5.78651C11.3575 5.83943 11.3278 5.9112 11.3278 5.98604V7.11011C11.3288 7.26479 11.4553 7.39136 11.61 7.39136ZM9.36 0.360107C6.97305 0.360107 4.68387 1.30832 2.99604 2.99615C1.30821 4.68397 0.360001 6.97316 0.360001 9.36011C0.360001 11.7471 1.30821 14.0362 2.99604 15.7241C4.68387 17.4119 6.97305 18.3601 9.36 18.3601C10.5419 18.3601 11.7122 18.1273 12.8042 17.675C13.8961 17.2227 14.8882 16.5598 15.724 15.7241C16.5597 14.8883 17.2226 13.8962 17.6749 12.8043C18.1272 11.7123 18.36 10.542 18.36 9.36011C18.36 8.17821 18.1272 7.00789 17.6749 5.91596C17.2226 4.82403 16.5597 3.83187 15.724 2.99615C14.8882 2.16042 13.8961 1.49748 12.8042 1.04519C11.7122 0.592899 10.5419 0.360107 9.36 0.360107ZM14.0475 13.006C14.0475 13.5789 13.5788 14.0476 13.0059 14.0476H5.71406C5.14125 14.0476 4.6725 13.5789 4.6725 13.006V5.71417C4.6725 5.14136 5.14125 4.67261 5.71406 4.67261H13.0059C13.5788 4.67261 14.0475 5.14136 14.0475 5.71417V13.006Z" fill="white"/>
</g>
<defs>
<clipPath id="clip0_55_159">
<rect width="18" height="18" fill="white"/>
</clipPath>
</defs>
</svg>
