<svg width="36" height="35" viewBox="0 0 36 35" fill="none" xmlns="http://www.w3.org/2000/svg">
<g id="bi:reddit" clip-path="url(#clip0_40_54)">
<g id="Group">
<path id="Vector" d="M13.7403 17.5C13.259 17.5006 12.7975 17.6921 12.4571 18.0324C12.1167 18.3728 11.9253 18.8343 11.9247 19.3156C11.9247 20.3197 12.7384 21.1531 13.7403 21.1334C14.2112 21.1171 14.6574 20.9185 14.9847 20.5796C15.3121 20.2407 15.4951 19.7879 15.4951 19.3167C15.4951 18.8455 15.3121 18.3927 14.9847 18.0538C14.6574 17.7149 14.2112 17.5163 13.7403 17.5ZM17.7719 25.4778C18.4609 25.4778 20.8409 25.3947 22.0944 24.1413C22.1756 24.0487 22.2204 23.9297 22.2204 23.8066C22.2204 23.6834 22.1756 23.5645 22.0944 23.4719C22.0509 23.427 21.9989 23.3914 21.9414 23.367C21.8839 23.3427 21.8221 23.3301 21.7597 23.3301C21.6972 23.3301 21.6354 23.3427 21.5779 23.367C21.5204 23.3914 21.4684 23.427 21.425 23.4719C20.6528 24.2659 18.9619 24.5372 17.7719 24.5372C16.5797 24.5372 14.9106 24.2659 14.1166 23.4719C14.0731 23.427 14.0211 23.3914 13.9636 23.367C13.9061 23.3427 13.8443 23.3301 13.7819 23.3301C13.7194 23.3301 13.6576 23.3427 13.6001 23.367C13.5426 23.3914 13.4906 23.427 13.4472 23.4719C13.4023 23.5153 13.3667 23.5673 13.3423 23.6248C13.318 23.6823 13.3054 23.7441 13.3054 23.8066C13.3054 23.869 13.318 23.9308 13.3423 23.9883C13.3667 24.0458 13.4023 24.0978 13.4472 24.1413C14.6809 25.3728 17.0609 25.4756 17.7719 25.4756V25.4778ZM19.9419 19.3375C19.9419 20.3394 20.7578 21.1531 21.7597 21.1531C22.7616 21.1531 23.5753 20.3197 23.5753 19.3375C23.5524 18.8714 23.3511 18.4319 23.0132 18.1101C22.6752 17.7883 22.2264 17.6088 21.7597 17.6088C21.293 17.6088 20.8442 17.7883 20.5062 18.1101C20.1682 18.4319 19.9669 18.8714 19.9441 19.3375H19.9419Z" fill="black"/>
<path id="Vector_2" d="M35.25 17.5C35.25 22.1413 33.4063 26.5925 30.1244 29.8744C26.8425 33.1563 22.3913 35 17.75 35C13.1087 35 8.65752 33.1563 5.37563 29.8744C2.09374 26.5925 0.25 22.1413 0.25 17.5C0.25 12.8587 2.09374 8.40752 5.37563 5.12563C8.65752 1.84374 13.1087 0 17.75 0C22.3913 0 26.8425 1.84374 30.1244 5.12563C33.4063 8.40752 35.25 12.8587 35.25 17.5ZM26.8762 14.9516C26.1872 14.9516 25.5594 15.2228 25.1 15.6625C23.3478 14.4091 20.9438 13.5953 18.2728 13.4903L19.4409 8.01937L23.2428 8.83313C23.2595 9.18811 23.38 9.53039 23.5894 9.81754C23.7988 10.1047 24.0878 10.3241 24.4207 10.4485C24.7536 10.5729 25.1157 10.5969 25.4621 10.5175C25.8085 10.4381 26.1239 10.2588 26.3694 10.0019C26.6149 9.74486 26.7795 9.42149 26.8429 9.07181C26.9063 8.72214 26.8657 8.36154 26.7262 8.03472C26.5866 7.7079 26.3542 7.42922 26.0577 7.23324C25.7613 7.03726 25.4138 6.93258 25.0584 6.93219C24.7185 6.93337 24.3858 7.02996 24.098 7.21095C23.8103 7.39193 23.5792 7.65006 23.4309 7.95594L19.1916 7.05906C19.1345 7.04677 19.0756 7.04585 19.0181 7.05636C18.9607 7.06687 18.9059 7.0886 18.8569 7.12031C18.8058 7.1522 18.7624 7.19504 18.7299 7.24573C18.6973 7.29642 18.6765 7.3537 18.6688 7.41344L17.3738 13.5122C14.6613 13.5953 12.2156 14.4091 10.4394 15.6822C9.98 15.2447 9.35437 14.9734 8.6675 14.9734C8.08498 14.9726 7.51981 15.1717 7.06642 15.5374C6.61303 15.9031 6.29889 16.4134 6.17648 16.9829C6.05408 17.5524 6.13082 18.1467 6.3939 18.6664C6.65697 19.1862 7.09044 19.5999 7.62187 19.8384C7.57812 20.09 7.55844 20.3416 7.55844 20.6106C7.55844 24.5372 12.1325 27.7331 17.7719 27.7331C23.4091 27.7331 27.9831 24.5591 27.9831 20.6106C27.9831 20.3612 27.9613 20.09 27.9197 19.8384C28.7969 19.4425 29.4247 18.5434 29.4247 17.5C29.4247 16.0781 28.2762 14.9516 26.8762 14.9516Z" fill="black"/>
</g>
</g>
<defs>
<clipPath id="clip0_40_54">
<rect width="35" height="35" fill="white" transform="translate(0.25)"/>
</clipPath>
</defs>
</svg>
