<svg width="34" height="35" viewBox="0 0 34 35" fill="none" xmlns="http://www.w3.org/2000/svg">
<g id="ri:share-fill" clip-path="url(#clip0_40_60)">
<path id="Vector" d="M20.873 27.1085L11.5579 22.0281C10.6637 22.9156 9.52679 23.5186 8.29044 23.761C7.0541 24.0034 5.77367 23.8743 4.61059 23.39C3.4475 22.9057 2.45383 22.0879 1.75485 21.0397C1.05587 19.9915 0.682861 18.7598 0.682861 17.5C0.682861 16.2401 1.05587 15.0084 1.75485 13.9602C2.45383 12.912 3.4475 12.0942 4.61059 11.6099C5.77367 11.1256 7.0541 10.9965 8.29044 11.2389C9.52679 11.4813 10.6637 12.0843 11.5579 12.9718L20.873 7.89136C20.5535 6.39244 20.7842 4.8286 21.523 3.48583C22.2618 2.14306 23.4592 1.11108 24.8963 0.578607C26.3334 0.0461366 27.9142 0.0487591 29.3495 0.585995C30.7849 1.12323 31.9789 2.15918 32.7132 3.5044C33.4475 4.84961 33.6731 6.4142 33.3486 7.91206C33.0242 9.40991 32.1714 10.7409 30.9462 11.6617C29.7211 12.5825 28.2054 13.0315 26.6764 12.9266C25.1474 12.8217 23.7073 12.17 22.6193 11.0906L13.3042 16.171C13.4898 17.0467 13.4898 17.9514 13.3042 18.827L22.6193 23.9093C23.7073 22.8299 25.1474 22.1782 26.6764 22.0733C28.2054 21.9684 29.7211 22.4174 30.9462 23.3382C32.1714 24.259 33.0242 25.59 33.3486 27.0878C33.6731 28.5857 33.4475 30.1503 32.7132 31.4955C31.9789 32.8407 30.7849 33.8767 29.3495 34.4139C27.9142 34.9511 26.3334 34.9538 24.8963 34.4213C23.4592 33.8888 22.2618 32.8568 21.523 31.5141C20.7842 30.1713 20.5535 28.6075 20.873 27.1085Z" fill="black"/>
</g>
<defs>
<clipPath id="clip0_40_60">
<rect width="33.25" height="35" fill="white" transform="translate(0.5)"/>
</clipPath>
</defs>
</svg>
